<svg width="250" height="40" viewBox="0 0 250 40" fill="none" xmlns="http://www.w3.org/2000/svg">
<rect x="1.5" y="1.5" width="37" height="37" fill="#0666EE"/>
<rect x="1.5" y="1.5" width="37" height="37" stroke="#0B0B0B" stroke-width="3"/>
<path d="M11.6972 29.16C11.7612 27.656 11.8492 26.08 11.9612 24.432C12.0732 22.784 12.1852 21.12 12.2972 19.44C12.3772 18.384 12.4412 17.336 12.4892 16.296C12.5372 15.256 12.5692 14.272 12.5852 13.344C12.6012 13.008 12.6892 12.728 12.8492 12.504C13.0252 12.264 13.3212 12.096 13.7372 12C13.9932 11.952 14.3372 11.904 14.7692 11.856C15.2172 11.808 15.6892 11.768 16.1852 11.736C16.6972 11.688 17.1772 11.656 17.6252 11.64C18.0892 11.624 18.4732 11.616 18.7772 11.616C20.4092 11.616 21.8332 11.856 23.0492 12.336C24.2652 12.8 25.2812 13.448 26.0972 14.28C26.9132 15.096 27.5292 16.048 27.9452 17.136C28.3612 18.208 28.5692 19.344 28.5692 20.544C28.5692 21.776 28.3372 22.992 27.8732 24.192C27.4092 25.376 26.7372 26.456 25.8572 27.432C24.9772 28.392 23.9132 29.16 22.6652 29.736C21.4172 30.312 20.0092 30.6 18.4412 30.6C17.8652 30.6 17.3292 30.552 16.8332 30.456C16.3532 30.36 15.9052 30.232 15.4892 30.072C15.2012 30.184 14.9052 30.272 14.6012 30.336C14.3132 30.416 13.9612 30.456 13.5452 30.456C13.0332 30.456 12.5932 30.36 12.2252 30.168C11.8572 29.992 11.6812 29.656 11.6972 29.16ZM16.1852 26.424C16.3292 26.472 16.4732 26.512 16.6172 26.544C16.7772 26.576 16.9372 26.608 17.0972 26.64C17.2732 26.656 17.4572 26.672 17.6492 26.688C17.8572 26.704 18.0732 26.712 18.2972 26.712C18.8572 26.712 19.4572 26.592 20.0972 26.352C20.7372 26.112 21.3372 25.744 21.8972 25.248C22.4572 24.752 22.9132 24.112 23.2652 23.328C23.6172 22.544 23.7932 21.6 23.7932 20.496C23.7932 19.536 23.6412 18.728 23.3372 18.072C23.0492 17.416 22.6732 16.896 22.2092 16.512C21.7452 16.112 21.2412 15.824 20.6972 15.648C20.1692 15.472 19.6652 15.384 19.1852 15.384C18.8972 15.384 18.6172 15.4 18.3452 15.432C18.0732 15.448 17.8172 15.48 17.5772 15.528C17.3372 15.56 17.0892 15.6 16.8332 15.648C16.8012 16.624 16.7692 17.472 16.7372 18.192C16.7052 18.896 16.6652 19.552 16.6172 20.16C16.5852 20.752 16.5452 21.344 16.4972 21.936C16.4492 22.528 16.4012 23.184 16.3532 23.904C16.3052 24.608 16.2492 25.448 16.1852 26.424Z" fill="white"/>
<path d="M67.924 26.024C68.164 26.6 68.284 27.016 68.284 27.272C68.284 27.88 67.788 28.392 66.796 28.808C66.284 29.032 65.868 29.144 65.548 29.144C65.244 29.144 64.988 29.072 64.78 28.928C64.588 28.768 64.444 28.608 64.348 28.448C64.188 28.144 63.564 26.696 62.476 24.104L61.732 24.152H58.708V26.864C58.708 27.232 58.692 27.512 58.66 27.704C58.644 27.88 58.572 28.088 58.444 28.328C58.22 28.76 57.596 28.976 56.572 28.976C55.452 28.976 54.796 28.68 54.604 28.088C54.508 27.816 54.46 27.4 54.46 26.84V13.52C54.46 13.152 54.468 12.88 54.484 12.704C54.516 12.512 54.596 12.296 54.724 12.056C54.948 11.624 55.572 11.408 56.596 11.408H61.78C63.188 11.408 64.556 11.92 65.884 12.944C66.524 13.44 67.052 14.112 67.468 14.96C67.884 15.808 68.092 16.752 68.092 17.792C68.092 19.6 67.492 21.088 66.292 22.256C66.644 23.104 67.188 24.36 67.924 26.024ZM58.708 19.904H61.78C62.244 19.904 62.708 19.728 63.172 19.376C63.636 19.024 63.868 18.496 63.868 17.792C63.868 17.088 63.636 16.56 63.172 16.208C62.708 15.84 62.228 15.656 61.732 15.656H58.708V19.904ZM77.3399 17.696C77.4359 16.8 78.0679 16.352 79.2359 16.352C79.8599 16.352 80.3239 16.4 80.6279 16.496C80.9319 16.592 81.1399 16.76 81.2519 17C81.3799 17.24 81.4519 17.456 81.4679 17.648C81.4999 17.824 81.5159 18.096 81.5159 18.464V26.864C81.5159 27.232 81.4999 27.512 81.4679 27.704C81.4519 27.88 81.3879 28.088 81.2759 28.328C81.0519 28.744 80.4999 28.952 79.6199 28.952C78.7559 28.952 78.1719 28.848 77.8679 28.64C77.5799 28.416 77.4119 28.096 77.3639 27.68C76.7719 28.528 75.7799 28.952 74.3879 28.952C73.0119 28.952 71.7319 28.32 70.5479 27.056C69.3639 25.792 68.7719 24.328 68.7719 22.664C68.7719 20.984 69.3639 19.52 70.5479 18.272C71.7479 17.008 73.0599 16.376 74.4839 16.376C75.0279 16.376 75.5239 16.472 75.9719 16.664C76.4199 16.856 76.7319 17.04 76.9079 17.216C77.0839 17.376 77.2279 17.536 77.3399 17.696ZM72.9719 22.688C72.9719 23.216 73.1799 23.696 73.5959 24.128C74.0119 24.544 74.5159 24.752 75.1079 24.752C75.6999 24.752 76.1879 24.536 76.5719 24.104C76.9719 23.672 77.1719 23.2 77.1719 22.688C77.1719 22.16 76.9799 21.672 76.5959 21.224C76.2279 20.776 75.7239 20.552 75.0839 20.552C74.4599 20.552 73.9479 20.776 73.5479 21.224C73.1639 21.672 72.9719 22.16 72.9719 22.688ZM90.7728 20.6L89.2128 20.504V23.816C89.2128 24.248 89.2768 24.56 89.4048 24.752C89.5488 24.944 89.8048 25.04 90.1728 25.04C90.5568 25.04 90.8448 25.056 91.0368 25.088C91.2448 25.104 91.4608 25.176 91.6848 25.304C92.0528 25.512 92.2368 26.048 92.2368 26.912C92.2368 27.92 92.0128 28.536 91.5648 28.76C91.3248 28.872 91.1088 28.944 90.9168 28.976C90.7408 28.992 90.4768 29 90.1248 29C88.4608 29 87.1968 28.624 86.3328 27.872C85.4688 27.12 85.0368 25.848 85.0368 24.056V20.504C84.7328 20.552 84.4048 20.576 84.0527 20.576C83.7008 20.576 83.4048 20.44 83.1648 20.168C82.9408 19.896 82.8288 19.432 82.8288 18.776C82.8288 18.12 82.8688 17.648 82.9488 17.36C83.0288 17.056 83.1408 16.84 83.2848 16.712C83.5408 16.504 83.8608 16.4 84.2448 16.4L85.0368 16.496V14.024C85.0368 13.656 85.0448 13.384 85.0608 13.208C85.0928 13.032 85.1728 12.84 85.3008 12.632C85.5088 12.232 86.1248 12.032 87.1488 12.032C88.2368 12.032 88.8848 12.328 89.0928 12.92C89.1728 13.176 89.2128 13.584 89.2128 14.144V16.496C89.9168 16.432 90.4448 16.4 90.7968 16.4C91.1648 16.4 91.4368 16.416 91.6128 16.448C91.8048 16.464 92.0208 16.536 92.2608 16.664C92.6768 16.872 92.8848 17.488 92.8848 18.512C92.8848 19.52 92.6688 20.136 92.2368 20.36C91.9968 20.472 91.7808 20.544 91.5888 20.576C91.4128 20.592 91.1408 20.6 90.7728 20.6ZM105.933 21.176C105.933 22.152 105.685 22.88 105.189 23.36C104.709 23.824 104.173 24.056 103.581 24.056H97.8933C97.8933 24.504 98.1573 24.88 98.6853 25.184C99.2133 25.488 99.7413 25.64 100.269 25.64C101.197 25.64 101.925 25.544 102.453 25.352L102.717 25.256C103.101 25.08 103.421 24.992 103.677 24.992C104.189 24.992 104.629 25.352 104.997 26.072C105.205 26.504 105.309 26.872 105.309 27.176C105.309 28.6 103.605 29.312 100.197 29.312C99.0133 29.312 97.9573 29.112 97.0293 28.712C96.1173 28.296 95.4053 27.752 94.8933 27.08C93.8853 25.784 93.3813 24.336 93.3813 22.736C93.3813 20.72 94.0293 19.112 95.3253 17.912C96.6373 16.696 98.2693 16.088 100.221 16.088C102.445 16.088 104.077 16.872 105.117 18.44C105.661 19.272 105.933 20.184 105.933 21.176ZM100.869 21.872C101.477 21.872 101.781 21.616 101.781 21.104C101.781 20.736 101.637 20.44 101.349 20.216C101.077 19.992 100.677 19.88 100.149 19.88C99.6373 19.88 99.1253 20.096 98.6133 20.528C98.1013 20.944 97.8453 21.392 97.8453 21.872H100.869ZM132.265 12.08C132.393 12.32 132.465 12.536 132.481 12.728C132.513 12.92 132.529 13.2 132.529 13.568V26.888C132.529 27.992 132.225 28.64 131.617 28.832C131.313 28.928 130.929 28.976 130.465 28.976C130.001 28.976 129.633 28.936 129.361 28.856C129.089 28.776 128.881 28.68 128.737 28.568C128.593 28.456 128.481 28.296 128.401 28.088C128.321 27.816 128.281 27.4 128.281 26.84V18.8C127.881 19.296 127.297 20.088 126.529 21.176C125.761 22.248 125.273 22.92 125.065 23.192C124.857 23.464 124.713 23.656 124.633 23.768C124.553 23.864 124.353 24.008 124.033 24.2C123.729 24.376 123.393 24.464 123.025 24.464C122.673 24.464 122.345 24.384 122.041 24.224C121.753 24.048 121.545 23.88 121.417 23.72L121.225 23.456C120.905 23.056 120.273 22.208 119.329 20.912C118.385 19.6 117.873 18.896 117.793 18.8V26.888C117.793 27.256 117.777 27.536 117.745 27.728C117.729 27.904 117.657 28.104 117.529 28.328C117.289 28.76 116.665 28.976 115.657 28.976C114.681 28.976 114.073 28.76 113.833 28.328C113.705 28.104 113.625 27.896 113.593 27.704C113.577 27.512 113.569 27.224 113.569 26.84V13.52C113.569 13.152 113.577 12.88 113.593 12.704C113.625 12.512 113.705 12.296 113.833 12.056C114.073 11.64 114.697 11.432 115.705 11.432C116.137 11.432 116.505 11.488 116.809 11.6C117.129 11.696 117.337 11.8 117.433 11.912L117.577 12.056L123.025 19.208C125.745 15.608 127.561 13.232 128.473 12.08C128.745 11.648 129.385 11.432 130.393 11.432C131.417 11.432 132.041 11.648 132.265 12.08ZM146.212 16.496C147.156 16.912 147.628 17.416 147.628 18.008C147.628 18.296 147.564 18.568 147.436 18.824C147.308 19.08 147.244 19.216 147.244 19.232L140.956 33.296C140.828 33.6 140.716 33.832 140.62 33.992C140.54 34.152 140.404 34.304 140.212 34.448C140.02 34.592 139.78 34.664 139.492 34.664C139.204 34.664 138.78 34.544 138.22 34.304C137.276 33.888 136.804 33.392 136.804 32.816C136.804 32.432 137.572 30.6 139.108 27.32L134.332 19.28C134.012 18.752 133.852 18.36 133.852 18.104C133.852 17.592 134.284 17.08 135.148 16.568C135.692 16.248 136.116 16.088 136.42 16.088C136.724 16.088 136.972 16.152 137.164 16.28C137.356 16.408 137.492 16.544 137.572 16.688C137.668 16.816 138.108 17.56 138.892 18.92C139.692 20.264 140.452 21.52 141.172 22.688C141.252 22.432 141.684 21.448 142.468 19.736C143.252 18.008 143.668 17.088 143.716 16.976C143.78 16.864 143.876 16.728 144.004 16.568C144.212 16.296 144.5 16.16 144.868 16.16C145.252 16.16 145.7 16.272 146.212 16.496ZM157.143 11.384L161.583 11.408C163.903 11.408 165.943 12.248 167.703 13.928C169.463 15.592 170.343 17.648 170.343 20.096C170.343 22.528 169.479 24.616 167.751 26.36C166.039 28.104 163.959 28.976 161.511 28.976H157.119C156.143 28.976 155.535 28.776 155.295 28.376C155.103 28.04 155.007 27.528 155.007 26.84V13.496C155.007 13.112 155.015 12.832 155.031 12.656C155.063 12.48 155.143 12.272 155.271 12.032C155.495 11.6 156.119 11.384 157.143 11.384ZM161.583 24.728C162.735 24.728 163.775 24.304 164.703 23.456C165.631 22.592 166.095 21.512 166.095 20.216C166.095 18.92 165.639 17.84 164.727 16.976C163.831 16.096 162.775 15.656 161.559 15.656H159.255V24.728H161.583ZM184.097 21.176C184.097 22.152 183.849 22.88 183.353 23.36C182.873 23.824 182.337 24.056 181.745 24.056H176.057C176.057 24.504 176.321 24.88 176.849 25.184C177.377 25.488 177.905 25.64 178.433 25.64C179.361 25.64 180.089 25.544 180.617 25.352L180.881 25.256C181.265 25.08 181.585 24.992 181.841 24.992C182.353 24.992 182.793 25.352 183.161 26.072C183.369 26.504 183.473 26.872 183.473 27.176C183.473 28.6 181.769 29.312 178.361 29.312C177.177 29.312 176.121 29.112 175.193 28.712C174.281 28.296 173.569 27.752 173.057 27.08C172.049 25.784 171.545 24.336 171.545 22.736C171.545 20.72 172.193 19.112 173.489 17.912C174.801 16.696 176.433 16.088 178.385 16.088C180.609 16.088 182.241 16.872 183.281 18.44C183.825 19.272 184.097 20.184 184.097 21.176ZM179.033 21.872C179.641 21.872 179.945 21.616 179.945 21.104C179.945 20.736 179.801 20.44 179.513 20.216C179.241 19.992 178.841 19.88 178.313 19.88C177.801 19.88 177.289 20.096 176.777 20.528C176.265 20.944 176.009 21.392 176.009 21.872H179.033ZM193.679 27.416C193.071 28.216 192.103 28.616 190.775 28.616C189.447 28.616 188.199 28.008 187.031 26.792C185.879 25.56 185.303 24.128 185.303 22.496C185.303 20.864 185.887 19.432 187.055 18.2C188.223 16.968 189.503 16.352 190.895 16.352C191.439 16.352 191.935 16.456 192.383 16.664C192.831 16.856 193.135 17.04 193.295 17.216C193.471 17.376 193.607 17.528 193.703 17.672C193.751 17.224 193.911 16.888 194.183 16.664C194.471 16.424 194.927 16.304 195.551 16.304C196.175 16.304 196.631 16.352 196.919 16.448C197.207 16.544 197.407 16.712 197.519 16.952C197.647 17.176 197.719 17.376 197.735 17.552C197.767 17.728 197.783 18 197.783 18.368V28.304C197.783 30.144 197.143 31.624 195.863 32.744C194.583 33.88 193.143 34.448 191.543 34.448C190.327 34.448 189.167 34.152 188.063 33.56C186.959 32.968 186.407 32.432 186.407 31.952C186.407 31.328 186.647 30.776 187.127 30.296C187.431 29.96 187.663 29.728 187.823 29.6C187.999 29.472 188.199 29.408 188.423 29.408C188.647 29.408 188.879 29.504 189.119 29.696C189.887 30.288 190.719 30.584 191.615 30.584C192.223 30.584 192.719 30.344 193.103 29.864C193.487 29.384 193.679 28.808 193.679 28.136V27.416ZM189.407 22.52C189.407 23.032 189.607 23.496 190.007 23.912C190.423 24.328 190.919 24.536 191.495 24.536C192.087 24.536 192.575 24.328 192.959 23.912C193.343 23.48 193.535 23.016 193.535 22.52C193.535 22.008 193.351 21.536 192.983 21.104C192.615 20.656 192.119 20.432 191.495 20.432C190.871 20.432 190.367 20.648 189.983 21.08C189.599 21.512 189.407 21.992 189.407 22.52ZM208.294 16.496C208.598 16.592 208.846 16.76 209.038 17C209.246 17.224 209.35 17.592 209.35 18.104C209.35 18.616 209.198 19.176 208.894 19.784C208.59 20.392 208.15 20.696 207.574 20.696C207.286 20.696 207.006 20.632 206.734 20.504C206.478 20.376 206.134 20.312 205.702 20.312C205.27 20.312 204.862 20.464 204.478 20.768C204.11 21.072 203.926 21.44 203.926 21.872V26.912C203.926 27.28 203.91 27.56 203.878 27.752C203.862 27.928 203.79 28.136 203.662 28.376C203.422 28.792 202.798 29 201.79 29C201.022 29 200.47 28.864 200.134 28.592C199.878 28.368 199.734 28.024 199.702 27.56C199.702 27.4 199.702 27.168 199.702 26.864V18.44C199.702 18.072 199.71 17.8 199.726 17.624C199.758 17.432 199.83 17.224 199.942 17C200.166 16.568 200.79 16.352 201.814 16.352C202.774 16.352 203.374 16.536 203.614 16.904C203.79 17.16 203.878 17.424 203.878 17.696C203.958 17.584 204.07 17.448 204.214 17.288C204.374 17.128 204.702 16.912 205.198 16.64C205.694 16.368 206.126 16.232 206.494 16.232C206.878 16.232 207.198 16.256 207.454 16.304C207.71 16.336 207.99 16.4 208.294 16.496ZM222.136 21.176C222.136 22.152 221.888 22.88 221.392 23.36C220.912 23.824 220.376 24.056 219.784 24.056H214.096C214.096 24.504 214.36 24.88 214.888 25.184C215.416 25.488 215.944 25.64 216.472 25.64C217.4 25.64 218.128 25.544 218.656 25.352L218.92 25.256C219.304 25.08 219.624 24.992 219.88 24.992C220.392 24.992 220.832 25.352 221.2 26.072C221.408 26.504 221.512 26.872 221.512 27.176C221.512 28.6 219.808 29.312 216.4 29.312C215.216 29.312 214.16 29.112 213.232 28.712C212.32 28.296 211.608 27.752 211.096 27.08C210.088 25.784 209.584 24.336 209.584 22.736C209.584 20.72 210.232 19.112 211.528 17.912C212.84 16.696 214.472 16.088 216.424 16.088C218.648 16.088 220.28 16.872 221.32 18.44C221.864 19.272 222.136 20.184 222.136 21.176ZM217.072 21.872C217.68 21.872 217.984 21.616 217.984 21.104C217.984 20.736 217.84 20.44 217.552 20.216C217.28 19.992 216.88 19.88 216.352 19.88C215.84 19.88 215.328 20.096 214.816 20.528C214.304 20.944 214.048 21.392 214.048 21.872H217.072ZM235.894 21.176C235.894 22.152 235.646 22.88 235.15 23.36C234.67 23.824 234.134 24.056 233.542 24.056H227.854C227.854 24.504 228.118 24.88 228.646 25.184C229.174 25.488 229.702 25.64 230.23 25.64C231.158 25.64 231.886 25.544 232.414 25.352L232.678 25.256C233.062 25.08 233.382 24.992 233.638 24.992C234.15 24.992 234.59 25.352 234.958 26.072C235.166 26.504 235.27 26.872 235.27 27.176C235.27 28.6 233.566 29.312 230.158 29.312C228.974 29.312 227.918 29.112 226.99 28.712C226.078 28.296 225.366 27.752 224.854 27.08C223.846 25.784 223.342 24.336 223.342 22.736C223.342 20.72 223.99 19.112 225.286 17.912C226.598 16.696 228.23 16.088 230.182 16.088C232.406 16.088 234.038 16.872 235.078 18.44C235.622 19.272 235.894 20.184 235.894 21.176ZM230.83 21.872C231.438 21.872 231.742 21.616 231.742 21.104C231.742 20.736 231.598 20.44 231.31 20.216C231.038 19.992 230.638 19.88 230.11 19.88C229.598 19.88 229.086 20.096 228.574 20.528C228.062 20.944 227.806 21.392 227.806 21.872H230.83Z" fill="black"/>
</svg>
