<svg width="34" height="34" viewBox="0 0 34 34" fill="none" xmlns="http://www.w3.org/2000/svg">
<g clip-path="url(#clip0_36_1638)">
<rect width="34" height="34" fill="#0666EE"/>
<path d="M8.69722 26.16C8.76122 24.656 8.84922 23.08 8.96122 21.432C9.07322 19.784 9.18522 18.12 9.29722 16.44C9.37722 15.384 9.44122 14.336 9.48922 13.296C9.53722 12.256 9.56922 11.272 9.58522 10.344C9.60122 10.008 9.68922 9.728 9.84922 9.504C10.0252 9.264 10.3212 9.096 10.7372 9C10.9932 8.952 11.3372 8.904 11.7692 8.856C12.2172 8.808 12.6892 8.768 13.1852 8.736C13.6972 8.688 14.1772 8.656 14.6252 8.64C15.0892 8.624 15.4732 8.616 15.7772 8.616C17.4092 8.616 18.8332 8.856 20.0492 9.336C21.2652 9.8 22.2812 10.448 23.0972 11.28C23.9132 12.096 24.5292 13.048 24.9452 14.136C25.3612 15.208 25.5692 16.344 25.5692 17.544C25.5692 18.776 25.3372 19.992 24.8732 21.192C24.4092 22.376 23.7372 23.456 22.8572 24.432C21.9772 25.392 20.9132 26.16 19.6652 26.736C18.4172 27.312 17.0092 27.6 15.4412 27.6C14.8652 27.6 14.3292 27.552 13.8332 27.456C13.3532 27.36 12.9052 27.232 12.4892 27.072C12.2012 27.184 11.9052 27.272 11.6012 27.336C11.3132 27.416 10.9612 27.456 10.5452 27.456C10.0332 27.456 9.59322 27.36 9.22522 27.168C8.85722 26.992 8.68122 26.656 8.69722 26.16ZM13.1852 23.424C13.3292 23.472 13.4732 23.512 13.6172 23.544C13.7772 23.576 13.9372 23.608 14.0972 23.64C14.2732 23.656 14.4572 23.672 14.6492 23.688C14.8572 23.704 15.0732 23.712 15.2972 23.712C15.8572 23.712 16.4572 23.592 17.0972 23.352C17.7372 23.112 18.3372 22.744 18.8972 22.248C19.4572 21.752 19.9132 21.112 20.2652 20.328C20.6172 19.544 20.7932 18.6 20.7932 17.496C20.7932 16.536 20.6412 15.728 20.3372 15.072C20.0492 14.416 19.6732 13.896 19.2092 13.512C18.7452 13.112 18.2412 12.824 17.6972 12.648C17.1692 12.472 16.6652 12.384 16.1852 12.384C15.8972 12.384 15.6172 12.4 15.3452 12.432C15.0732 12.448 14.8172 12.48 14.5772 12.528C14.3372 12.56 14.0892 12.6 13.8332 12.648C13.8012 13.624 13.7692 14.472 13.7372 15.192C13.7052 15.896 13.6652 16.552 13.6172 17.16C13.5852 17.752 13.5452 18.344 13.4972 18.936C13.4492 19.528 13.4012 20.184 13.3532 20.904C13.3052 21.608 13.2492 22.448 13.1852 23.424Z" fill="white"/>
</g>
<rect x="1" y="1" width="32" height="32" stroke="#0B0B0B" stroke-width="2"/>
<defs>
<clipPath id="clip0_36_1638">
<rect width="34" height="34" fill="white"/>
</clipPath>
</defs>
</svg>
