<svg width="47" height="47" viewBox="0 0 47 47" fill="none" xmlns="http://www.w3.org/2000/svg">
<rect width="47" height="47" rx="23.5" fill="#6C63FF"/>
<path d="M38.1319 22.5056C38.4027 22.386 38.6324 22.1897 38.7927 21.9407C38.953 21.6918 39.0369 21.4013 39.0338 21.1052C39.0307 20.8091 38.9409 20.5204 38.7755 20.2749C38.6101 20.0293 38.3763 19.8377 38.1032 19.7238L25.1403 13.8153C24.7462 13.6354 24.3181 13.5424 23.885 13.5424C23.4519 13.5424 23.0238 13.6354 22.6297 13.8153L9.66836 19.7178C9.3991 19.8358 9.17004 20.0298 9.0092 20.276C8.84836 20.5222 8.7627 20.8099 8.7627 21.1041C8.7627 21.3983 8.84836 21.686 9.0092 21.9322C9.17004 22.1784 9.3991 22.3724 9.66836 22.4904L22.6297 28.405C23.0238 28.5849 23.4519 28.678 23.885 28.678C24.3181 28.678 24.7462 28.5849 25.1403 28.405L38.1319 22.5056Z" stroke="white" stroke-width="3" stroke-linecap="round" stroke-linejoin="round"/>
<path d="M39.0339 21.5085V30.2712" stroke="white" stroke-width="2" stroke-linecap="round" stroke-linejoin="round"/>
<path d="M15.1355 25.4915V30.6388C15.1355 31.809 16.0587 32.9312 17.702 33.7586C19.3454 34.586 21.5742 35.0508 23.8982 35.0508C26.2222 35.0508 28.4511 34.586 30.0944 33.7586C31.7377 32.9312 32.6609 31.809 32.6609 30.6388V25.4915" stroke="white" stroke-width="3" stroke-linecap="round" stroke-linejoin="round"/>
</svg>
