<svg width="240" height="47" viewBox="0 0 240 47" fill="none" xmlns="http://www.w3.org/2000/svg">
<rect width="47" height="47" rx="23.5" fill="#6C63FF"/>
<path d="M38.1319 22.5056C38.4027 22.386 38.6324 22.1897 38.7927 21.9408C38.953 21.6918 39.0369 21.4013 39.0338 21.1052C39.0307 20.8091 38.9409 20.5204 38.7755 20.2749C38.6101 20.0293 38.3763 19.8377 38.1032 19.7238L25.1403 13.8153C24.7462 13.6355 24.3181 13.5424 23.885 13.5424C23.4519 13.5424 23.0238 13.6355 22.6297 13.8153L9.66836 19.7178C9.3991 19.8358 9.17004 20.0298 9.0092 20.276C8.84836 20.5222 8.7627 20.81 8.7627 21.1041C8.7627 21.3983 8.84836 21.686 9.0092 21.9323C9.17004 22.1785 9.3991 22.3724 9.66836 22.4904L22.6297 28.405C23.0238 28.5849 23.4519 28.678 23.885 28.678C24.3181 28.678 24.7462 28.5849 25.1403 28.405L38.1319 22.5056Z" stroke="white" stroke-width="3" stroke-linecap="round" stroke-linejoin="round"/>
<path d="M39.0339 21.5085V30.2712" stroke="white" stroke-width="2" stroke-linecap="round" stroke-linejoin="round"/>
<path d="M15.1355 25.4915V30.6389C15.1355 31.809 16.0587 32.9312 17.702 33.7586C19.3454 34.586 21.5742 35.0509 23.8982 35.0509C26.2222 35.0509 28.4511 34.586 30.0944 33.7586C31.7377 32.9312 32.6609 31.809 32.6609 30.6389V25.4915" stroke="white" stroke-width="3" stroke-linecap="round" stroke-linejoin="round"/>
<path d="M58.64 18.14C58.6667 17.6733 58.86 17.3533 59.22 17.18C59.5933 17.0067 59.9667 16.92 60.34 16.92C60.62 16.92 60.9267 16.9533 61.26 17.02C61.6067 17.0733 61.9 17.18 62.14 17.34C62.3933 17.4867 62.5067 17.7 62.48 17.98C62.4267 18.8733 62.3733 19.8533 62.32 20.92C62.28 21.9867 62.24 23.08 62.2 24.2C62.16 25.32 62.1267 26.4267 62.1 27.52C62.0733 28.6 62.06 29.6067 62.06 30.54C62.06 31.0867 61.8667 31.4533 61.48 31.64C61.1067 31.84 60.58 31.94 59.9 31.94C59.3667 31.94 58.96 31.8467 58.68 31.66C58.4 31.4867 58.26 31.12 58.26 30.56C58.2733 29.3067 58.2933 27.9733 58.32 26.56C58.3467 25.1467 58.3867 23.72 58.44 22.28C58.5067 20.84 58.5733 19.46 58.64 18.14ZM60.38 19.38C59.8867 19.4467 59.54 19.3267 59.34 19.02C59.1533 18.7133 59.0533 18.3333 59.04 17.88C59.04 17.52 59.1667 17.2067 59.42 16.94C59.6867 16.66 60.1333 16.4733 60.76 16.38C61.0133 16.34 61.2933 16.3133 61.6 16.3C61.92 16.2733 62.2267 16.2533 62.52 16.24C63.9333 16.1867 65.1867 16.3133 66.28 16.62C67.3867 16.9267 68.2533 17.4133 68.88 18.08C69.5067 18.7333 69.82 19.5733 69.82 20.6C69.82 21.2133 69.7 21.7733 69.46 22.28C69.22 22.7733 68.88 23.22 68.44 23.62C68 24.0067 67.4867 24.3467 66.9 24.64C66.3267 24.9333 65.7 25.1733 65.02 25.36C65.6867 25.7333 66.3333 26.1267 66.96 26.54C67.6 26.94 68.2 27.3333 68.76 27.72C69.3333 28.1067 69.8533 28.4733 70.32 28.82C70.4933 28.94 70.6067 29.0667 70.66 29.2C70.7133 29.3333 70.74 29.46 70.74 29.58C70.74 29.9533 70.64 30.2867 70.44 30.58C70.24 30.86 69.9867 31.0867 69.68 31.26C69.3867 31.42 69.0733 31.5 68.74 31.5C68.5 31.5 68.2867 31.4533 68.1 31.36C67.9133 31.2667 67.74 31.1667 67.58 31.06C67.02 30.66 66.36 30.2133 65.6 29.72C64.84 29.2133 64.04 28.7067 63.2 28.2C62.3733 27.68 61.5667 27.1933 60.78 26.74C59.9933 26.2733 59.2933 25.88 58.68 25.56C58.3867 25.4 58.1867 25.2267 58.08 25.04C57.9867 24.8533 57.94 24.62 57.94 24.34C57.94 24.0733 58.0133 23.8067 58.16 23.54C58.32 23.26 58.5867 23.1133 58.96 23.1L60.82 23.06C61.62 23.0467 62.3333 22.9933 62.96 22.9C63.6 22.8067 64.1467 22.6667 64.6 22.48C65.0533 22.28 65.4 22.0333 65.64 21.74C65.88 21.4333 66 21.0667 66 20.64C66 20.24 65.86 19.9333 65.58 19.72C65.3 19.5067 64.9333 19.3667 64.48 19.3C64.04 19.22 63.58 19.18 63.1 19.18C62.6467 19.18 62.1933 19.2 61.74 19.24C61.2867 19.2667 60.8333 19.3133 60.38 19.38ZM75.0025 31.14C74.8025 31.54 74.5092 31.7933 74.1225 31.9C73.7358 32.0067 73.2692 32.06 72.7225 32.06C72.3225 32.06 71.9692 31.9933 71.6625 31.86C71.3558 31.74 71.1558 31.5533 71.0625 31.3C70.9558 31.0333 70.9958 30.7133 71.1825 30.34C71.6092 29.5267 72.0692 28.5867 72.5625 27.52C73.0692 26.4533 73.5825 25.3267 74.1025 24.14C74.6225 22.9533 75.1358 21.7733 75.6425 20.6C76.1625 19.4133 76.6425 18.2933 77.0825 17.24C77.3492 16.6267 77.6825 16.24 78.0825 16.08C78.4958 15.9067 78.9492 15.82 79.4425 15.82C80.0692 15.82 80.5492 15.92 80.8825 16.12C81.2292 16.32 81.5358 16.72 81.8025 17.32C81.8692 17.4533 81.9758 17.7467 82.1225 18.2C82.2692 18.64 82.4425 19.18 82.6425 19.82C82.8558 20.4467 83.0758 21.1133 83.3025 21.82C83.5292 22.5133 83.7492 23.1933 83.9625 23.86C84.1892 24.5133 84.3892 25.08 84.5625 25.56C84.8825 26.4533 85.1758 27.26 85.4425 27.98C85.7092 28.6867 85.9892 29.3133 86.2825 29.86C86.3892 30.06 86.4692 30.2467 86.5225 30.42C86.5892 30.58 86.6225 30.74 86.6225 30.9C86.6225 31.0333 86.5692 31.1867 86.4625 31.36C86.3558 31.5333 86.1692 31.68 85.9025 31.8C85.6492 31.92 85.2892 31.98 84.8225 31.98C84.3692 31.98 83.9358 31.9133 83.5225 31.78C83.1225 31.66 82.8025 31.3533 82.5625 30.86C82.2958 30.2733 81.9758 29.5267 81.6025 28.62C81.2425 27.7 80.8892 26.7333 80.5425 25.72C80.4225 25.4 80.3092 24.9933 80.2025 24.5C80.0958 24.0067 79.9825 23.4933 79.8625 22.96C79.7558 22.4133 79.6492 21.9 79.5425 21.42C79.4358 20.9267 79.3292 20.5133 79.2225 20.18C78.8625 21.02 78.5025 21.9267 78.1425 22.9C77.7958 23.8733 77.4492 24.86 77.1025 25.86C76.7692 26.86 76.4225 27.8133 76.0625 28.72C75.7158 29.6267 75.3625 30.4333 75.0025 31.14ZM75.6025 28.12C75.3758 28.1333 75.1158 28.0067 74.8225 27.74C74.5292 27.4733 74.3825 27.0533 74.3825 26.48C74.3825 26.0267 74.4492 25.6867 74.5825 25.46C74.7292 25.22 74.8958 25.06 75.0825 24.98C75.2825 24.8867 75.4558 24.8333 75.6025 24.82C76.3225 24.74 77.1092 24.68 77.9625 24.64C78.8158 24.6 79.6292 24.5733 80.4025 24.56C81.1892 24.5467 81.8292 24.5533 82.3225 24.58C82.5892 24.58 82.8558 24.6867 83.1225 24.9C83.3892 25.1133 83.5225 25.5067 83.5225 26.08C83.5225 26.7333 83.3892 27.2 83.1225 27.48C82.8558 27.7467 82.5892 27.88 82.3225 27.88C81.8825 27.8533 81.2825 27.8467 80.5225 27.86C79.7758 27.8733 78.9692 27.9 78.1025 27.94C77.2358 27.98 76.4025 28.04 75.6025 28.12ZM86.8436 19.52C86.3903 19.4933 86.0769 19.3067 85.9036 18.96C85.7436 18.6 85.6636 18.1933 85.6636 17.74C85.6636 17.3267 85.7436 16.9533 85.9036 16.62C86.0769 16.2867 86.3903 16.1333 86.8436 16.16C88.4169 16.24 90.0969 16.2667 91.8836 16.24C93.6836 16.2 95.4103 16.12 97.0636 16C97.5036 15.9733 97.8103 16.12 97.9836 16.44C98.1703 16.7467 98.2636 17.1133 98.2636 17.54C98.2636 18.0733 98.1703 18.5 97.9836 18.82C97.7969 19.14 97.4903 19.32 97.0636 19.36C95.8903 19.4533 94.7369 19.52 93.6036 19.56C92.4836 19.6 91.3636 19.6133 90.2436 19.6C89.1369 19.5867 88.0036 19.56 86.8436 19.52ZM89.7636 17.7C89.7903 17.2333 89.9836 16.92 90.3436 16.76C90.7169 16.6 91.1369 16.52 91.6036 16.52C92.0569 16.52 92.4703 16.6 92.8436 16.76C93.2303 16.92 93.4103 17.2333 93.3836 17.7L92.9436 30.72C92.9303 31.1733 92.7369 31.48 92.3636 31.64C91.9903 31.8133 91.5769 31.9 91.1236 31.9C90.6569 31.9 90.2369 31.8133 89.8636 31.64C89.4903 31.48 89.3103 31.1733 89.3236 30.72L89.7636 17.7ZM99.7723 17.6C99.8257 17.0933 100.052 16.7333 100.452 16.52C100.852 16.3067 101.332 16.2 101.892 16.2H108.672C109.046 16.2 109.312 16.34 109.472 16.62C109.632 16.8867 109.712 17.2667 109.712 17.76C109.712 18.2533 109.626 18.6467 109.452 18.94C109.279 19.22 108.992 19.36 108.592 19.36H103.252C103.212 19.88 103.172 20.3467 103.132 20.76C103.092 21.16 103.059 21.5667 103.032 21.98C103.752 21.9 104.459 21.86 105.152 21.86C105.459 21.86 105.772 21.86 106.092 21.86C106.412 21.86 106.726 21.8733 107.032 21.9C107.366 21.9267 107.639 22.0867 107.852 22.38C108.066 22.66 108.179 23.0267 108.192 23.48C108.219 23.9733 108.119 24.3667 107.892 24.66C107.679 24.94 107.379 25.0733 106.992 25.06C106.686 25.0467 106.366 25.04 106.032 25.04C105.712 25.0267 105.399 25.02 105.092 25.02C104.719 25.02 104.352 25.0333 103.992 25.06C103.646 25.0733 103.279 25.1067 102.892 25.16C102.879 25.6133 102.859 26.1 102.832 26.62C102.819 27.1267 102.812 27.7 102.812 28.34C103.786 28.2733 104.692 28.24 105.532 28.24C106.386 28.24 107.166 28.2533 107.872 28.28C108.379 28.2933 108.739 28.4333 108.952 28.7C109.166 28.9667 109.272 29.34 109.272 29.82C109.272 30.3533 109.159 30.76 108.932 31.04C108.706 31.3067 108.319 31.4333 107.772 31.42C107.132 31.3933 106.412 31.38 105.612 31.38C104.826 31.38 104.032 31.3867 103.232 31.4C102.432 31.4133 101.692 31.44 101.012 31.48C100.746 31.4933 100.472 31.44 100.192 31.32C99.9123 31.1867 99.6723 30.9933 99.4723 30.74C99.2857 30.4867 99.1923 30.1933 99.1923 29.86C99.1923 28.2867 99.2123 26.8 99.2523 25.4C99.3057 23.9867 99.3723 22.6333 99.4523 21.34C99.5457 20.0467 99.6523 18.8 99.7723 17.6ZM120.659 30.7C120.619 31.1533 120.426 31.4667 120.079 31.64C119.733 31.8133 119.326 31.9 118.859 31.9C118.593 31.9 118.326 31.86 118.059 31.78C117.806 31.7 117.599 31.5667 117.439 31.38C117.279 31.18 117.213 30.9 117.239 30.54C117.319 29.5267 117.386 28.4467 117.439 27.3C117.506 26.1533 117.559 25.0067 117.599 23.86C117.639 22.7 117.666 21.6 117.679 20.56C117.706 19.5067 117.719 18.58 117.719 17.78C117.719 17.34 117.799 17 117.959 16.76C118.133 16.52 118.353 16.3533 118.619 16.26C118.886 16.1533 119.153 16.1 119.419 16.1C119.753 16.1 120.093 16.16 120.439 16.28C120.786 16.3867 121.059 16.64 121.259 17.04L124.759 24.16C125.573 22.9333 126.339 21.7467 127.059 20.6C127.793 19.44 128.466 18.3733 129.079 17.4C129.386 16.8933 129.679 16.5867 129.959 16.48C130.253 16.3733 130.546 16.32 130.839 16.32C131.146 16.32 131.453 16.3667 131.759 16.46C132.066 16.54 132.313 16.6933 132.499 16.92C132.699 17.1467 132.793 17.48 132.779 17.92L132.719 20.12C132.666 21.88 132.599 23.6467 132.519 25.42C132.453 27.18 132.393 28.8333 132.339 30.38C132.326 30.8467 132.159 31.18 131.839 31.38C131.533 31.5667 131.153 31.6733 130.699 31.7C130.233 31.7133 129.813 31.6067 129.439 31.38C129.079 31.14 128.906 30.7733 128.919 30.28C128.919 30.2133 128.926 30.06 128.939 29.82C128.953 29.58 128.966 29.28 128.979 28.92C128.993 28.56 129.006 28.1533 129.019 27.7C129.046 27.2467 129.066 26.7667 129.079 26.26C129.106 25.74 129.126 25.22 129.139 24.7C129.166 24.1667 129.193 23.6467 129.219 23.14C128.859 23.7133 128.493 24.28 128.119 24.84C127.759 25.4 127.399 25.94 127.039 26.46C126.693 26.98 126.353 27.4733 126.019 27.94C125.726 28.3533 125.433 28.6267 125.139 28.76C124.846 28.88 124.599 28.94 124.399 28.94C124.026 28.94 123.679 28.8 123.359 28.52C123.053 28.2267 122.806 27.8733 122.619 27.46C122.486 27.18 122.346 26.9 122.199 26.62C122.066 26.3267 121.933 26.04 121.799 25.76C121.666 25.4667 121.526 25.18 121.379 24.9C121.246 24.6067 121.113 24.32 120.979 24.04C120.966 24.8 120.939 25.56 120.899 26.32C120.873 27.0667 120.839 27.8067 120.799 28.54C120.759 29.2733 120.713 29.9933 120.659 30.7ZM134.59 17.82C134.537 17.7133 134.504 17.6133 134.49 17.52C134.477 17.4133 134.47 17.3133 134.47 17.22C134.484 16.82 134.677 16.4867 135.05 16.22C135.424 15.94 135.877 15.8 136.41 15.8C136.664 15.8 136.924 15.86 137.19 15.98C137.47 16.1 137.677 16.3333 137.81 16.68C137.917 16.9067 138.077 17.2333 138.29 17.66C138.517 18.0867 138.777 18.5667 139.07 19.1C139.364 19.6333 139.664 20.18 139.97 20.74C140.29 21.2867 140.584 21.7933 140.85 22.26C141.517 21.22 142.19 20.1933 142.87 19.18C143.564 18.1667 144.244 17.24 144.91 16.4C145.11 16.1467 145.31 15.9867 145.51 15.92C145.71 15.8533 145.904 15.82 146.09 15.82C146.33 15.82 146.577 15.88 146.83 16C147.097 16.12 147.324 16.2867 147.51 16.5C147.697 16.7133 147.79 16.9733 147.79 17.28C147.79 17.44 147.757 17.6133 147.69 17.8C147.624 17.9733 147.51 18.16 147.35 18.36C146.95 18.88 146.484 19.5067 145.95 20.24C145.43 20.9733 144.884 21.7667 144.31 22.62C143.75 23.46 143.197 24.3133 142.65 25.18C142.704 25.5267 142.73 25.8067 142.73 26.02C142.744 26.22 142.75 26.4933 142.75 26.84C142.75 27.0533 142.737 27.3867 142.71 27.84C142.684 28.28 142.644 28.76 142.59 29.28C142.537 29.7867 142.464 30.26 142.37 30.7C142.29 31.1133 142.11 31.4133 141.83 31.6C141.55 31.8 141.164 31.9 140.67 31.9C139.95 31.86 139.424 31.6933 139.09 31.4C138.77 31.1067 138.69 30.5533 138.85 29.74C138.89 29.5267 138.93 29.1933 138.97 28.74C139.01 28.2867 139.044 27.7867 139.07 27.24C139.11 26.6933 139.124 26.16 139.11 25.64C138.564 24.7067 138.004 23.7933 137.43 22.9C136.87 21.9933 136.344 21.1133 135.85 20.26C135.357 19.4067 134.937 18.5933 134.59 17.82ZM155.221 18.14C155.221 17.6067 155.434 17.2133 155.861 16.96C156.288 16.6933 156.868 16.5333 157.601 16.48C158.508 16.3733 159.228 16.3067 159.761 16.28C160.294 16.24 160.788 16.22 161.241 16.22C164.068 16.22 166.201 16.84 167.641 18.08C169.081 19.32 169.768 21.32 169.701 24.08C169.621 25.3467 169.274 26.4467 168.661 27.38C168.048 28.3133 167.254 29.0867 166.281 29.7C165.308 30.3133 164.234 30.7733 163.061 31.08C161.888 31.3733 160.708 31.52 159.521 31.52C159.068 31.52 158.594 31.5067 158.101 31.48C157.621 31.4533 157.194 31.4267 156.821 31.4C156.448 31.36 156.194 31.3267 156.061 31.3C155.528 31.1933 155.168 30.9867 154.981 30.68C154.794 30.36 154.701 30.0467 154.701 29.74C154.701 29.3133 154.788 28.96 154.961 28.68C155.134 28.4 155.401 28.26 155.761 28.26C155.868 28.26 155.968 28.2667 156.061 28.28C156.168 28.2933 156.268 28.32 156.361 28.36C156.374 28.12 156.381 27.8933 156.381 27.68C156.394 27.4667 156.401 27.2533 156.401 27.04C156.414 26.8267 156.421 26.62 156.421 26.42C156.421 26.0867 156.408 25.7 156.381 25.26C156.368 24.8067 156.341 24.3333 156.301 23.84C156.274 23.3333 156.248 22.8267 156.221 22.32C156.194 21.8133 156.181 21.3333 156.181 20.88C156.181 20.4267 156.194 20.0333 156.221 19.7C155.901 19.7267 155.654 19.6 155.481 19.32C155.308 19.0267 155.221 18.6333 155.221 18.14ZM160.041 25.94C160.041 26.1933 160.034 26.4533 160.021 26.72C160.021 26.9733 160.014 27.2333 160.001 27.5C160.001 27.7667 159.994 28.0467 159.981 28.34C160.554 28.3667 161.121 28.3267 161.681 28.22C162.241 28.1133 162.768 27.94 163.261 27.7C163.754 27.46 164.188 27.1467 164.561 26.76C164.948 26.3733 165.248 25.92 165.461 25.4C165.688 24.8667 165.801 24.26 165.801 23.58C165.801 22.54 165.628 21.7133 165.281 21.1C164.948 20.4867 164.454 20.0467 163.801 19.78C163.148 19.5133 162.348 19.38 161.401 19.38C161.241 19.38 161.074 19.3867 160.901 19.4C160.741 19.4 160.574 19.4067 160.401 19.42C160.228 19.4333 160.054 19.4533 159.881 19.48C159.828 20.1067 159.801 20.6333 159.801 21.06C159.801 21.4867 159.808 21.8667 159.821 22.2C159.848 22.5333 159.874 22.8667 159.901 23.2C159.941 23.5333 159.974 23.92 160.001 24.36C160.028 24.7867 160.041 25.3133 160.041 25.94ZM172.655 16.92C172.708 16.4533 172.848 16.1333 173.075 15.96C173.302 15.7733 173.648 15.68 174.115 15.68C174.462 15.68 174.788 15.72 175.095 15.8C175.415 15.8667 175.628 15.9333 175.735 16C176.015 15.9067 176.375 15.8467 176.815 15.82C177.255 15.78 177.668 15.76 178.055 15.76C178.828 15.76 179.508 15.78 180.095 15.82C180.695 15.8467 181.135 15.88 181.415 15.92C181.962 15.9867 182.322 16.1733 182.495 16.48C182.668 16.7733 182.755 17.1133 182.755 17.5C182.755 17.9933 182.635 18.4 182.395 18.72C182.168 19.0267 181.802 19.1533 181.295 19.1C181.068 19.0733 180.775 19.0467 180.415 19.02C180.068 18.9933 179.715 18.9733 179.355 18.96C179.008 18.9333 178.715 18.92 178.475 18.92C178.075 18.92 177.675 18.9333 177.275 18.96C176.875 18.9867 176.475 19.0333 176.075 19.1L175.815 21.8C176.095 21.7733 176.435 21.76 176.835 21.76C177.235 21.7467 177.655 21.74 178.095 21.74C178.548 21.74 178.975 21.7533 179.375 21.78C179.775 21.7933 180.108 21.8267 180.375 21.88C180.788 21.9467 181.088 22.1267 181.275 22.42C181.475 22.7133 181.575 23.0533 181.575 23.44C181.575 23.8533 181.462 24.24 181.235 24.6C181.022 24.9467 180.715 25.0933 180.315 25.04C179.555 24.96 178.755 24.9067 177.915 24.88C177.088 24.8533 176.322 24.8733 175.615 24.94C175.562 25.54 175.508 26.1467 175.455 26.76C175.415 27.36 175.368 27.96 175.315 28.56C175.875 28.4933 176.495 28.4467 177.175 28.42C177.868 28.38 178.528 28.3533 179.155 28.34C179.795 28.3267 180.315 28.3267 180.715 28.34C181.208 28.3533 181.542 28.52 181.715 28.84C181.902 29.16 181.995 29.5333 181.995 29.96C181.995 30.36 181.895 30.7267 181.695 31.06C181.508 31.3933 181.148 31.5533 180.615 31.54C179.602 31.5 178.702 31.4867 177.915 31.5C177.128 31.5133 176.408 31.54 175.755 31.58C175.115 31.6333 174.488 31.7 173.875 31.78C173.462 31.82 173.075 31.8133 172.715 31.76C172.355 31.7067 172.068 31.5733 171.855 31.36C171.642 31.1467 171.548 30.82 171.575 30.38C171.722 28.1933 171.882 25.9467 172.055 23.64C172.242 21.3333 172.442 19.0933 172.655 16.92ZM197.455 18.1C197.521 18.22 197.568 18.3467 197.595 18.48C197.635 18.6133 197.655 18.74 197.655 18.86C197.655 19.1133 197.575 19.38 197.415 19.66C197.268 19.9267 197.075 20.1533 196.835 20.34C196.595 20.5133 196.348 20.6 196.095 20.6C195.881 20.6 195.688 20.5667 195.515 20.5C195.341 20.4333 195.188 20.3333 195.055 20.2C194.868 19.9867 194.608 19.7933 194.275 19.62C193.941 19.4333 193.561 19.2867 193.135 19.18C192.721 19.06 192.275 19 191.795 19C191.075 19 190.455 19.1533 189.935 19.46C189.415 19.7533 188.981 20.1533 188.635 20.66C188.301 21.1667 188.055 21.74 187.895 22.38C187.735 23.0067 187.655 23.6533 187.655 24.32C187.655 24.9467 187.741 25.5267 187.915 26.06C188.088 26.5933 188.328 27.06 188.635 27.46C188.941 27.86 189.295 28.1733 189.695 28.4C190.095 28.6133 190.528 28.72 190.995 28.72C191.501 28.72 191.935 28.6467 192.295 28.5C192.655 28.34 192.955 28.1267 193.195 27.86C193.435 27.5933 193.635 27.28 193.795 26.92C193.955 26.56 194.088 26.1733 194.195 25.76C193.808 25.76 193.441 25.78 193.095 25.82C192.761 25.8467 192.461 25.88 192.195 25.92C191.781 25.9733 191.455 25.86 191.215 25.58C190.988 25.2867 190.875 24.9533 190.875 24.58C190.875 24.1 190.981 23.72 191.195 23.44C191.408 23.16 191.675 23.0067 191.995 22.98C192.341 22.9533 192.781 22.9267 193.315 22.9C193.861 22.8733 194.435 22.8467 195.035 22.82C195.635 22.7933 196.188 22.78 196.695 22.78C197.215 22.7667 197.608 22.7667 197.875 22.78C198.195 22.7933 198.441 22.92 198.615 23.16C198.788 23.4 198.875 23.76 198.875 24.24C198.875 24.68 198.788 25.0467 198.615 25.34C198.441 25.62 198.215 25.76 197.935 25.76H197.575C197.455 26.52 197.208 27.2667 196.835 28C196.475 28.72 196.001 29.3733 195.415 29.96C194.841 30.5467 194.181 31.0133 193.435 31.36C192.688 31.7067 191.875 31.88 190.995 31.88C189.968 31.88 189.021 31.68 188.155 31.28C187.288 30.8667 186.535 30.3067 185.895 29.6C185.268 28.88 184.781 28.06 184.435 27.14C184.088 26.22 183.915 25.2533 183.915 24.24C183.915 23.0267 184.101 21.9067 184.475 20.88C184.861 19.8533 185.408 18.9667 186.115 18.22C186.835 17.46 187.681 16.8733 188.655 16.46C189.641 16.0467 190.735 15.84 191.935 15.84C192.735 15.84 193.515 15.9467 194.275 16.16C195.048 16.3733 195.721 16.6533 196.295 17C196.868 17.3467 197.255 17.7133 197.455 18.1ZM201.222 17.04C201.249 16.6933 201.369 16.4267 201.582 16.24C201.795 16.0533 202.182 15.96 202.742 15.96C202.915 15.96 203.129 15.9867 203.382 16.04C203.649 16.0933 203.909 16.1733 204.162 16.28C204.415 16.3867 204.622 16.5267 204.782 16.7C204.955 16.8733 205.035 17.08 205.022 17.32L204.182 30.62C204.155 31.0733 203.929 31.3867 203.502 31.56C203.075 31.7333 202.589 31.82 202.042 31.82C201.589 31.82 201.189 31.7267 200.842 31.54C200.495 31.3667 200.335 31.04 200.362 30.56L201.222 17.04ZM203.462 19.06C203.302 19.0867 203.169 19.0267 203.062 18.88C202.955 18.72 202.862 18.5267 202.782 18.3C202.715 18.06 202.662 17.8267 202.622 17.6C202.595 17.3733 202.582 17.2067 202.582 17.1C202.582 16.8733 202.695 16.6933 202.922 16.56C203.162 16.4133 203.575 16.2733 204.162 16.14C204.469 16.0733 204.795 16.0267 205.142 16C205.502 15.96 205.962 15.94 206.522 15.94C207.762 15.94 208.815 16.14 209.682 16.54C210.549 16.94 211.209 17.4667 211.662 18.12C212.115 18.76 212.342 19.44 212.342 20.16C212.342 20.7333 212.235 21.2667 212.022 21.76C211.809 22.2533 211.515 22.7067 211.142 23.12C210.769 23.52 210.342 23.88 209.862 24.2C209.395 24.5067 208.909 24.7667 208.402 24.98C209.029 25.4067 209.562 25.7733 210.002 26.08C210.455 26.3867 210.855 26.6733 211.202 26.94C211.549 27.1933 211.875 27.46 212.182 27.74C212.502 28.02 212.835 28.3467 213.182 28.72C213.422 28.9733 213.582 29.1733 213.662 29.32C213.742 29.4667 213.782 29.6533 213.782 29.88C213.782 30.2 213.655 30.5133 213.402 30.82C213.149 31.1133 212.849 31.3533 212.502 31.54C212.169 31.74 211.862 31.84 211.582 31.84C211.462 31.84 211.315 31.8133 211.142 31.76C210.969 31.7067 210.809 31.62 210.662 31.5C210.129 31.02 209.569 30.5133 208.982 29.98C208.409 29.4333 207.809 28.8933 207.182 28.36C206.569 27.8133 205.935 27.2867 205.282 26.78C204.642 26.2733 203.982 25.8 203.302 25.36L203.362 22.7C203.509 22.7133 203.755 22.7467 204.102 22.8C204.449 22.8533 204.855 22.88 205.322 22.88C205.789 22.88 206.215 22.8267 206.602 22.72C206.989 22.6 207.322 22.44 207.602 22.24C207.895 22.0267 208.115 21.7867 208.262 21.52C208.422 21.24 208.502 20.94 208.502 20.62C208.502 20.1667 208.369 19.8133 208.102 19.56C207.835 19.3067 207.495 19.1267 207.082 19.02C206.669 18.9133 206.229 18.86 205.762 18.86C205.455 18.86 205.189 18.8667 204.962 18.88C204.735 18.8933 204.509 18.9133 204.282 18.94C204.055 18.9667 203.782 19.0067 203.462 19.06ZM216.249 16.92C216.302 16.4533 216.442 16.1333 216.669 15.96C216.896 15.7733 217.242 15.68 217.709 15.68C218.056 15.68 218.382 15.72 218.689 15.8C219.009 15.8667 219.222 15.9333 219.329 16C219.609 15.9067 219.969 15.8467 220.409 15.82C220.849 15.78 221.262 15.76 221.649 15.76C222.422 15.76 223.102 15.78 223.689 15.82C224.289 15.8467 224.729 15.88 225.009 15.92C225.556 15.9867 225.916 16.1733 226.089 16.48C226.262 16.7733 226.349 17.1133 226.349 17.5C226.349 17.9933 226.229 18.4 225.989 18.72C225.762 19.0267 225.396 19.1533 224.889 19.1C224.662 19.0733 224.369 19.0467 224.009 19.02C223.662 18.9933 223.309 18.9733 222.949 18.96C222.602 18.9333 222.309 18.92 222.069 18.92C221.669 18.92 221.269 18.9333 220.869 18.96C220.469 18.9867 220.069 19.0333 219.669 19.1L219.409 21.8C219.689 21.7733 220.029 21.76 220.429 21.76C220.829 21.7467 221.249 21.74 221.689 21.74C222.142 21.74 222.569 21.7533 222.969 21.78C223.369 21.7933 223.702 21.8267 223.969 21.88C224.382 21.9467 224.682 22.1267 224.869 22.42C225.069 22.7133 225.169 23.0533 225.169 23.44C225.169 23.8533 225.056 24.24 224.829 24.6C224.616 24.9467 224.309 25.0933 223.909 25.04C223.149 24.96 222.349 24.9067 221.509 24.88C220.682 24.8533 219.916 24.8733 219.209 24.94C219.156 25.54 219.102 26.1467 219.049 26.76C219.009 27.36 218.962 27.96 218.909 28.56C219.469 28.4933 220.089 28.4467 220.769 28.42C221.462 28.38 222.122 28.3533 222.749 28.34C223.389 28.3267 223.909 28.3267 224.309 28.34C224.802 28.3533 225.136 28.52 225.309 28.84C225.496 29.16 225.589 29.5333 225.589 29.96C225.589 30.36 225.489 30.7267 225.289 31.06C225.102 31.3933 224.742 31.5533 224.209 31.54C223.196 31.5 222.296 31.4867 221.509 31.5C220.722 31.5133 220.002 31.54 219.349 31.58C218.709 31.6333 218.082 31.7 217.469 31.78C217.056 31.82 216.669 31.8133 216.309 31.76C215.949 31.7067 215.662 31.5733 215.449 31.36C215.236 31.1467 215.142 30.82 215.169 30.38C215.316 28.1933 215.476 25.9467 215.649 23.64C215.836 21.3333 216.036 19.0933 216.249 16.92ZM229.221 31.8C229.075 31.8 228.895 31.78 228.681 31.74C228.481 31.7133 228.308 31.62 228.161 31.46C228.015 31.3 227.955 31.0467 227.981 30.7C228.088 29.3 228.195 27.8533 228.301 26.36C228.408 24.8533 228.508 23.3467 228.601 21.84C228.695 20.3333 228.775 18.8667 228.841 17.44C228.868 17.0133 228.961 16.7067 229.121 16.52C229.281 16.32 229.588 16.2067 230.041 16.18C230.655 16.1267 231.381 16.0867 232.221 16.06C233.061 16.0333 233.941 16.0133 234.861 16C235.781 15.9733 236.668 15.96 237.521 15.96C237.948 15.96 238.261 16.0533 238.461 16.24C238.675 16.4267 238.781 16.7533 238.781 17.22C238.781 17.9933 238.681 18.5067 238.481 18.76C238.295 19 238.008 19.12 237.621 19.12C237.008 19.12 236.481 19.1267 236.041 19.14C235.615 19.14 235.221 19.1533 234.861 19.18C234.501 19.1933 234.141 19.2133 233.781 19.24C233.421 19.2533 233.001 19.28 232.521 19.32C232.495 19.7467 232.468 20.1 232.441 20.38C232.428 20.66 232.415 20.9333 232.401 21.2C232.388 21.4667 232.361 21.8133 232.321 22.24C232.908 22.16 233.448 22.1 233.941 22.06C234.435 22.02 234.901 21.9933 235.341 21.98C235.795 21.9667 236.228 21.9733 236.641 22C236.868 22 237.088 22.1 237.301 22.3C237.515 22.5 237.621 22.86 237.621 23.38C237.621 24.1 237.508 24.58 237.281 24.82C237.055 25.0467 236.835 25.16 236.621 25.16C236.288 25.1333 235.901 25.1267 235.461 25.14C235.035 25.14 234.548 25.1667 234.001 25.22C233.468 25.26 232.855 25.3267 232.161 25.42C232.108 26.02 232.061 26.56 232.021 27.04C231.995 27.52 231.955 28.0267 231.901 28.56C232.368 28.5333 232.828 28.5 233.281 28.46C233.748 28.42 234.208 28.3867 234.661 28.36C235.115 28.32 235.561 28.2867 236.001 28.26C236.455 28.2333 236.895 28.22 237.321 28.22C237.655 28.22 237.915 28.3267 238.101 28.54C238.288 28.74 238.368 29.1067 238.341 29.64C238.315 30.32 238.215 30.78 238.041 31.02C237.868 31.26 237.648 31.38 237.381 31.38C237.115 31.38 236.841 31.38 236.561 31.38C236.295 31.38 236.028 31.3867 235.761 31.4C235.135 31.4133 234.428 31.44 233.641 31.48C232.868 31.52 232.095 31.5667 231.321 31.62C230.548 31.6733 229.848 31.7333 229.221 31.8Z" fill="#6C63FF"/>
</svg>
